<svg width="531" height="167" viewBox="0 0 531 167" fill="none" xmlns="http://www.w3.org/2000/svg">
<path d="M25 0C11.1929 4.12325e-06 0 11.1929 0 25V119C0 132.807 11.1929 144 25 144H77.5312C77.46 153.098 76.1741 153.904 64.1631 167C81.4717 161.559 98.3103 155.658 103.339 144H506C519.807 144 531 132.807 531 119V25C531 11.1929 519.807 9.16054e-07 506 0H25Z" fill="white"/>
<path d="M101.365 141L100.584 142.812C98.4795 147.69 93.7574 151.668 86.9805 155.165C83.1104 157.162 78.7253 158.923 74.0518 160.578C75.6989 158.675 76.955 157.074 77.8789 155.573C80.1443 151.893 80.4942 148.748 80.5312 144.023L80.5547 141H25V144H77.5312C77.46 153.098 76.1741 153.904 64.1631 167C81.4717 161.559 98.3103 155.658 103.339 144H506V141H101.365ZM3 119V25C3 12.8497 12.8497 3 25 3H506C518.15 3 528 12.8497 528 25V119C528 131.15 518.15 141 506 141V144C519.807 144 531 132.807 531 119V25C531 11.1929 519.807 9.16054e-07 506 0H25C11.1929 4.12325e-06 0 11.1929 0 25V119C0 132.807 11.1929 144 25 144V141C12.8497 141 3 131.15 3 119Z" fill="#EA5504"/>
</svg>
