<svg width="580" height="372" viewBox="0 0 580 372" fill="none" xmlns="http://www.w3.org/2000/svg">
<path d="M76.624 3.33008L45.8535 40.375H560L560.517 40.3818C571.323 40.6558 580 49.5021 580 60.375V351.66L579.993 352.176C579.724 362.811 571.152 371.384 560.517 371.653L560 371.66H20L19.4834 371.653C8.84813 371.383 0.276223 362.811 0.00683594 352.176L0 351.66V60.375C6.69674e-05 49.5022 8.67667 40.656 19.4834 40.3818L20 40.375H43.7891L41.2441 38.1035L72.8936 0L76.624 3.33008ZM20 45.375C11.7159 45.3752 5.00007 52.0909 5 60.375V351.66C5.00025 359.944 11.7161 366.66 20 366.66H560C568.284 366.66 575 359.944 575 351.66V60.375C575 52.0908 568.284 45.375 560 45.375H20Z" fill="url(#paint0_linear_4001_2)"/>
<defs>
<linearGradient id="paint0_linear_4001_2" x1="0" y1="185.83" x2="580" y2="185.83" gradientUnits="userSpaceOnUse">
<stop stop-color="#EFC83C"/>
<stop offset="1" stop-color="#FD9C00"/>
</linearGradient>
</defs>
</svg>
