<svg width="30" height="30" viewBox="0 0 30 30" fill="none" xmlns="http://www.w3.org/2000/svg">
<path fill-rule="evenodd" clip-rule="evenodd" d="M4.58525 3.22033C3.83142 3.22033 3.22033 3.83142 3.22033 4.58525V25.4109C3.22033 26.1647 3.83141 26.7758 4.58525 26.7758H25.4109C26.1647 26.7758 26.7758 26.1647 26.7758 25.4109V16.4856C26.7758 15.5963 27.4967 14.8754 28.3859 14.8754C29.2752 14.8754 29.9961 15.5963 29.9961 16.4856V25.4109C29.9961 27.9433 27.9433 29.9961 25.4109 29.9961H4.58525C2.0529 29.9961 0 27.9433 0 25.4109V4.58525C0 2.05289 2.05289 0 4.58525 0H13.5105C14.3998 0 15.1207 0.720895 15.1207 1.61016C15.1207 2.49943 14.3998 3.22033 13.5105 3.22033H4.58525Z" fill="#333333"/>
<path fill-rule="evenodd" clip-rule="evenodd" d="M17.8533 1.61016C17.8533 0.720895 18.5741 0 19.4634 0H28.3887C29.2779 0 29.9988 0.720895 29.9988 1.61016V10.5354C29.9988 11.4247 29.2779 12.1456 28.3887 12.1456C27.4994 12.1456 26.7785 11.4247 26.7785 10.5354V5.49745L16.1393 16.1366C15.5105 16.7654 14.491 16.7654 13.8622 16.1366C13.2334 15.5078 13.2334 14.4883 13.8622 13.8595L24.5014 3.22033H19.4634C18.5741 3.22033 17.8533 2.49943 17.8533 1.61016Z" fill="#333333"/>
</svg>
