<svg width="37" height="49" viewBox="0 0 37 49" fill="none" xmlns="http://www.w3.org/2000/svg">
<path d="M3.30805 2.0719C-0.00763142 4.25068 -0.658986 11.0612 0.592829 16.612C1.56774 20.9346 3.64047 26.7331 7.1356 32.1932C10.4236 37.3298 15.0108 41.9357 18.5085 44.6005C23.0002 48.0222 29.4032 50.1972 32.7188 48.0184C34.3954 46.9167 36.8863 43.9066 37 43.3665C37 43.3665 35.5393 41.0846 35.2188 40.5838L30.3205 32.9315C29.9565 32.3628 27.6738 32.8826 26.5141 33.5481C24.9499 34.4461 23.5093 36.8556 23.5093 36.8556C22.4367 37.4835 21.5384 36.8579 19.6613 35.9826C17.3544 34.9071 14.7606 31.5656 12.6963 28.5391C10.8108 25.3952 8.85734 21.6328 8.82906 19.06C8.80578 16.9666 8.60843 15.8805 9.61171 15.1442C9.61171 15.1442 12.3706 14.7941 13.8178 13.7133C14.8904 12.912 16.2897 11.0122 15.9257 10.4434L11.0274 2.79116C10.7069 2.29039 9.24621 0.00846838 9.24621 0.00846838C8.71304 -0.106602 4.98464 0.970186 3.30805 2.0719Z" fill="white"/>
</svg>
