<svg width="422" height="41" viewBox="0 0 422 41" fill="none" xmlns="http://www.w3.org/2000/svg">
<path d="M417.366 39.494H394.777C393.16 39.494 390.416 38.857 390.416 35.231C390.416 27.195 400.363 21.511 403.401 19.894C411.535 15.582 414.083 14.161 414.083 11.221C414.083 8.918 411.388 6.615 406.439 6.615C403.793 6.615 399.089 6.86 397.472 11.123C396.933 12.544 396.394 13.916 394.189 13.916C392.376 13.916 390.465 12.593 390.465 10.388C390.465 7.448 393.993 0 405.949 0C414.328 0 420.992 4.018 420.992 10.927C420.992 17.836 416.288 20.384 403.646 27.195C398.697 29.841 398.011 32.487 398.011 33.075C398.011 33.32 398.256 33.32 398.403 33.32H417.366C420.404 33.32 421.041 34.986 421.041 36.309C421.041 37.044 420.796 39.494 417.366 39.494Z" fill="white"/>
<path d="M376.255 18.816C381.939 21.609 382.87 25.774 382.87 28.469C382.87 34.055 378.166 40.376 367.533 40.376C356.9 40.376 352.196 34.055 352.196 28.469C352.196 25.774 353.127 21.609 358.86 18.816C357.194 17.885 353.568 15.925 353.568 10.682C353.568 2.646 362.241 0 367.533 0C372.825 0 381.498 2.646 381.498 10.682C381.498 15.925 377.872 17.885 376.255 18.816ZM374.785 11.074C374.785 8.82 372.09 6.615 367.533 6.615C362.976 6.615 360.281 8.82 360.281 11.074C360.281 13.328 362.927 15.582 367.533 15.582C372.041 15.582 374.785 13.377 374.785 11.074ZM367.533 22.295C363.27 22.295 359.203 24.353 359.203 28.028C359.203 31.801 363.417 33.761 367.533 33.761C371.698 33.761 375.863 31.801 375.863 28.028C375.863 24.304 371.747 22.295 367.533 22.295Z" fill="white"/>
<path d="M338.035 18.816C343.719 21.609 344.65 25.774 344.65 28.469C344.65 34.055 339.946 40.376 329.313 40.376C318.68 40.376 313.976 34.055 313.976 28.469C313.976 25.774 314.907 21.609 320.64 18.816C318.974 17.885 315.348 15.925 315.348 10.682C315.348 2.646 324.021 0 329.313 0C334.605 0 343.278 2.646 343.278 10.682C343.278 15.925 339.652 17.885 338.035 18.816ZM336.565 11.074C336.565 8.82 333.87 6.615 329.313 6.615C324.756 6.615 322.061 8.82 322.061 11.074C322.061 13.328 324.707 15.582 329.313 15.582C333.821 15.582 336.565 13.377 336.565 11.074ZM329.313 22.295C325.05 22.295 320.983 24.353 320.983 28.028C320.983 31.801 325.197 33.761 329.313 33.761C333.478 33.761 337.643 31.801 337.643 28.028C337.643 24.304 333.527 22.295 329.313 22.295Z" fill="white"/>
<path d="M305.237 28.1752H291.909C290.39 28.1752 289.067 26.8522 289.067 25.2842C289.067 23.4712 290.537 22.3442 291.909 22.3442H305.237C306.805 22.3442 308.079 23.7162 308.079 25.2352C308.079 27.0482 306.609 28.1752 305.237 28.1752Z" fill="white"/>
<path d="M268.39 22.54H262.657C260.55 22.54 259.472 20.825 259.472 19.306C259.472 17.591 260.648 16.121 262.314 16.121H267.704C272.702 16.121 275.544 13.377 275.544 10.878C275.544 7.497 271.281 6.615 268.635 6.615C263.735 6.615 261.971 8.967 261.138 10.045C259.276 12.495 258.737 12.74 257.512 12.74C255.258 12.74 253.788 11.368 253.788 9.457C253.788 5.488 259.472 0 268.635 0C276.867 0 282.502 4.361 282.502 10.584C282.502 15.68 278.729 17.983 277.161 18.914C278.631 19.649 283.139 21.756 283.139 27.979C283.139 34.741 277.308 40.376 267.9 40.376C257.855 40.376 252.514 33.957 252.514 30.919C252.514 28.861 254.523 27.44 256.14 27.44C257.463 27.44 257.904 27.881 260.109 30.184C263.245 33.418 266.92 33.761 268.292 33.761C271.183 33.761 276.181 32.193 276.181 28.028C276.181 24.059 271.624 22.54 268.39 22.54Z" fill="white"/>
<path d="M235.854 7.05632H222.771C221.546 7.05632 221.252 7.84033 221.252 9.89832V12.0053C221.252 15.3373 218.655 15.4353 218.067 15.4353C216.058 15.4353 214.784 14.1123 214.784 12.2013V6.17433C214.784 4.41033 215.421 0.882324 219.782 0.882324H239.088C244.331 0.882324 244.478 4.16533 244.478 5.97833C244.478 10.6823 243.645 12.8383 240.215 17.6893C233.257 27.5873 232.767 29.0083 231.395 36.7013C231.15 38.1713 230.758 40.3763 228.112 40.3763C227.769 40.3763 224.535 40.3763 224.535 36.8973C224.535 28.4693 231.493 18.9633 234.923 14.4553C237.373 11.2213 237.814 10.0943 237.814 8.47733C237.814 7.49732 237.618 7.05632 235.854 7.05632Z" fill="white"/>
<path d="M191.949 22.54H186.216C184.109 22.54 183.031 20.825 183.031 19.306C183.031 17.591 184.207 16.121 185.873 16.121H191.263C196.261 16.121 199.103 13.377 199.103 10.878C199.103 7.497 194.84 6.615 192.194 6.615C187.294 6.615 185.53 8.967 184.697 10.045C182.835 12.495 182.296 12.74 181.071 12.74C178.817 12.74 177.347 11.368 177.347 9.457C177.347 5.488 183.031 0 192.194 0C200.426 0 206.061 4.361 206.061 10.584C206.061 15.68 202.288 17.983 200.72 18.914C202.19 19.649 206.698 21.756 206.698 27.979C206.698 34.741 200.867 40.376 191.459 40.376C181.414 40.376 176.073 33.957 176.073 30.919C176.073 28.861 178.082 27.44 179.699 27.44C181.022 27.44 181.463 27.881 183.668 30.184C186.804 33.418 190.479 33.761 191.851 33.761C194.742 33.761 199.74 32.193 199.74 28.028C199.74 24.059 195.183 22.54 191.949 22.54Z" fill="white"/>
<path d="M167.335 28.1752H154.007C152.488 28.1752 151.165 26.8522 151.165 25.2842C151.165 23.4712 152.635 22.3442 154.007 22.3442H167.335C168.903 22.3442 170.177 23.7162 170.177 25.2352C170.177 27.0482 168.707 28.1752 167.335 28.1752Z" fill="white"/>
<path d="M129.948 0C141.708 0 145.236 9.163 145.236 20.188C145.236 31.115 141.757 40.376 129.948 40.376C118.139 40.376 114.66 31.115 114.66 20.188C114.66 9.261 118.139 0 129.948 0ZM129.948 6.615C123.529 6.615 121.52 12.25 121.52 20.188C121.52 28.322 123.578 33.761 129.948 33.761C136.22 33.761 138.376 28.469 138.376 20.188C138.376 11.76 136.122 6.615 129.948 6.615Z" fill="white"/>
<path d="M103.341 39.494H80.7521C79.1351 39.494 76.3911 38.857 76.3911 35.231C76.3911 27.195 86.3381 21.511 89.3761 19.894C97.5101 15.582 100.058 14.161 100.058 11.221C100.058 8.918 97.3631 6.615 92.4141 6.615C89.7681 6.615 85.0641 6.86 83.4471 11.123C82.9081 12.544 82.3691 13.916 80.1641 13.916C78.3511 13.916 76.4401 12.593 76.4401 10.388C76.4401 7.448 79.9681 0 91.9241 0C100.303 0 106.967 4.018 106.967 10.927C106.967 17.836 102.263 20.384 89.6211 27.195C84.6721 29.841 83.9861 32.487 83.9861 33.075C83.9861 33.32 84.2311 33.32 84.3781 33.32H103.341C106.379 33.32 107.016 34.986 107.016 36.309C107.016 37.044 106.771 39.494 103.341 39.494Z" fill="white"/>
<path d="M52.8709 8.918L46.3049 13.426C45.6679 13.867 44.9329 14.112 44.1979 14.112C42.6299 14.112 40.9639 12.985 40.9639 10.78C40.9639 9.996 41.2579 8.918 42.0909 8.379L52.8709 0.980002C53.8019 0.343001 54.4879 0 55.7619 0C58.4079 0 59.5349 1.764 59.5349 3.234V36.946C59.5349 39.935 57.1339 40.376 56.2519 40.376C54.3409 40.376 52.8709 39.053 52.8709 36.848V8.918Z" fill="white"/>
<path d="M15.288 0C27.048 0 30.576 9.163 30.576 20.188C30.576 31.115 27.097 40.376 15.288 40.376C3.479 40.376 0 31.115 0 20.188C0 9.261 3.479 0 15.288 0ZM15.288 6.615C8.869 6.615 6.86 12.25 6.86 20.188C6.86 28.322 8.918 33.761 15.288 33.761C21.56 33.761 23.716 28.469 23.716 20.188C23.716 11.76 21.462 6.615 15.288 6.615Z" fill="white"/>
</svg>
